<?xml version="1.0" encoding="UTF-8" standalone="no"?>
<!DOCTYPE svg PUBLIC "-//W3C//DTD SVG 20010904//EN"
              "http://www.w3.org/TR/2001/REC-SVG-20010904/DTD/svg10.dtd">

<svg xmlns="http://www.w3.org/2000/svg"
     width="20in" height="18.8778in"
     viewBox="0 0 1800 1699">
  <path id="e0"
        fill="none" stroke="black" stroke-width="1"
        d="M 620.74,585.08
           C 620.74,585.08 620.74,670.59 620.74,670.59
             620.74,670.59 368.74,670.59 368.74,670.59
             368.74,670.59 368.74,585.08 368.74,585.08
             368.74,585.08 620.74,585.08 620.74,585.08 Z
           M 91.28,252.63
           C 91.28,252.63 91.28,315.46 91.28,315.46
             91.28,315.46 101.90,315.46 101.90,315.46
             101.90,315.46 101.90,391.07 101.90,391.07
             101.90,391.07 91.28,391.07 91.28,391.07
             91.28,391.07 91.28,453.90 91.28,453.90
             91.28,453.90 168.41,453.90 168.41,453.90
             168.41,453.90 168.41,443.28 168.41,443.28
             168.41,443.28 244.10,443.28 244.10,443.28
             244.10,443.28 244.10,453.90 244.10,453.90
             244.10,453.90 319.70,453.90 319.70,453.90
             319.70,453.90 319.70,443.28 319.70,443.28
             319.70,443.28 395.39,443.28 395.39,443.28
             395.39,443.28 395.39,453.90 395.39,453.90
             395.39,453.90 472.52,453.90 472.52,453.90
             472.52,453.90 472.52,391.07 472.52,391.07
             472.52,391.07 461.90,391.07 461.90,391.07
             461.90,391.07 461.90,315.46 461.90,315.46
             461.90,315.46 472.52,315.46 472.52,315.46
             472.52,315.46 472.52,252.63 472.52,252.63
             472.52,252.63 395.39,252.63 395.39,252.63
             395.39,252.63 395.39,263.25 395.39,263.25
             395.39,263.25 319.70,263.25 319.70,263.25
             319.70,263.25 319.70,252.63 319.70,252.63
             319.70,252.63 244.10,252.63 244.10,252.63
             244.10,252.63 244.10,263.25 244.10,263.25
             244.10,263.25 168.41,263.25 168.41,263.25
             168.41,263.25 168.41,252.63 168.41,252.63
             168.41,252.63 91.28,252.63 91.28,252.63 Z
           M 1100.85,537.17
           C 1100.85,537.17 1100.85,589.38 1100.85,589.38
             1100.85,589.38 1090.23,589.38 1090.23,589.38
             1090.23,589.38 1090.23,664.99 1090.23,664.99
             1090.23,664.99 1100.85,664.99 1100.85,664.99
             1100.85,664.99 1100.85,717.20 1100.85,717.20
             1100.85,717.20 1167.36,717.20 1167.36,717.20
             1167.36,717.20 1167.36,727.82 1167.36,727.82
             1167.36,727.82 1243.05,727.82 1243.05,727.82
             1243.05,727.82 1243.05,717.20 1243.05,717.20
             1243.05,717.20 1318.65,717.20 1318.65,717.20
             1318.65,717.20 1318.65,727.82 1318.65,727.82
             1318.65,727.82 1394.34,727.82 1394.34,727.82
             1394.34,727.82 1394.34,717.20 1394.34,717.20
             1394.34,717.20 1460.85,717.20 1460.85,717.20
             1460.85,717.20 1460.85,664.99 1460.85,664.99
             1460.85,664.99 1471.47,664.99 1471.47,664.99
             1471.47,664.99 1471.47,589.38 1471.47,589.38
             1471.47,589.38 1460.85,589.38 1460.85,589.38
             1460.85,589.38 1460.85,537.17 1460.85,537.17
             1460.85,537.17 1394.34,537.17 1394.34,537.17
             1394.34,537.17 1394.34,526.55 1394.34,526.55
             1394.34,526.55 1318.65,526.55 1318.65,526.55
             1318.65,526.55 1318.65,537.17 1318.65,537.17
             1318.65,537.17 1243.05,537.17 1243.05,537.17
             1243.05,537.17 1243.05,526.55 1243.05,526.55
             1243.05,526.55 1167.36,526.55 1167.36,526.55
             1167.36,526.55 1167.36,537.17 1167.36,537.17
             1167.36,537.17 1100.85,537.17 1100.85,537.17 Z
           M 1680.45,537.15
           C 1680.45,537.15 1617.63,537.16 1617.63,537.16
             1617.63,537.16 1617.62,526.54 1617.62,526.54
             1617.62,526.54 1542.02,526.56 1542.02,526.56
             1542.02,526.56 1542.03,537.18 1542.03,537.18
             1542.03,537.18 1479.21,537.19 1479.21,537.19
             1479.21,537.19 1479.22,589.40 1479.22,589.40
             1479.22,589.40 1489.84,589.40 1489.84,589.40
             1489.84,589.40 1489.85,665.01 1489.85,665.01
             1489.85,665.01 1479.23,665.01 1479.23,665.01
             1479.23,665.01 1479.24,717.22 1479.24,717.22
             1479.24,717.22 1542.06,717.21 1542.06,717.21
             1542.06,717.21 1542.06,727.83 1542.06,727.83
             1542.06,727.83 1617.66,727.81 1617.66,727.81
             1617.66,727.81 1617.66,717.19 1617.66,717.19
             1617.66,717.19 1680.48,717.18 1680.48,717.18
             1680.48,717.18 1680.47,664.97 1680.47,664.97
             1680.47,664.97 1669.85,664.97 1669.85,664.97
             1669.85,664.97 1669.84,589.36 1669.84,589.36
             1669.84,589.36 1680.46,589.36 1680.46,589.36
             1680.46,589.36 1680.45,537.15 1680.45,537.15 Z
           M 938.51,627.21
           C 938.51,633.18 933.67,638.01 927.71,638.01
             921.74,638.01 916.91,633.18 916.91,627.21
             916.91,621.25 921.74,616.41 927.71,616.41
             933.67,616.41 938.51,621.25 938.51,627.21
             938.51,627.21 938.51,627.21 938.51,627.21 Z
           M 855.59,627.19
           C 855.59,630.54 852.87,633.26 849.52,633.26
             846.16,633.26 843.44,630.54 843.44,627.19
             843.44,623.83 846.16,621.11 849.52,621.11
             852.87,621.11 855.59,623.83 855.59,627.19
             855.59,627.19 855.59,627.19 855.59,627.19 Z
           M 632.54,573.25
           C 632.54,576.23 630.12,578.65 627.14,578.65
             624.16,578.65 621.74,576.23 621.74,573.25
             621.74,570.27 624.16,567.85 627.14,567.85
             630.12,567.85 632.54,570.27 632.54,573.25
             632.54,573.25 632.54,573.25 632.54,573.25 Z
           M 860.32,627.19
           C 860.32,633.15 855.48,637.99 849.52,637.99
             843.55,637.99 838.72,633.15 838.72,627.19
             838.72,621.22 843.55,616.38 849.52,616.38
             855.48,616.38 860.32,621.22 860.32,627.19
             860.32,627.19 860.32,627.19 860.32,627.19 Z
           M 367.18,681.12
           C 367.18,684.10 364.76,686.52 361.78,686.52
             358.80,686.52 356.38,684.10 356.38,681.12
             356.38,678.14 358.80,675.72 361.78,675.72
             364.76,675.72 367.18,678.14 367.18,681.12
             367.18,681.12 367.18,681.12 367.18,681.12 Z
           M 881.51,627.31
           C 881.51,630.67 878.79,633.39 875.44,633.39
             872.08,633.39 869.36,630.67 869.36,627.31
             869.36,623.96 872.08,621.24 875.44,621.24
             878.79,621.24 881.51,623.96 881.51,627.31
             881.51,627.31 881.51,627.31 881.51,627.31 Z
           M 367.19,573.28
           C 367.19,576.26 364.77,578.68 361.79,578.68
             358.81,578.68 356.39,576.26 356.39,573.28
             356.39,570.29 358.81,567.88 361.79,567.88
             364.77,567.88 367.19,570.29 367.19,573.28
             367.19,573.28 367.19,573.28 367.19,573.28 Z
           M 886.24,627.31
           C 886.24,633.28 881.40,638.12 875.44,638.12
             869.47,638.12 864.64,633.28 864.64,627.31
             864.64,621.35 869.47,616.51 875.44,616.51
             881.40,616.51 886.24,621.35 886.24,627.31
             886.24,627.31 886.24,627.31 886.24,627.31 Z
           M 632.53,681.09
           C 632.53,684.08 630.11,686.49 627.13,686.49
             624.15,686.49 621.73,684.08 621.73,681.09
             621.73,678.11 624.15,675.69 627.13,675.69
             630.11,675.69 632.53,678.11 632.53,681.09
             632.53,681.09 632.53,681.09 632.53,681.09 Z
           M 907.87,627.44
           C 907.87,630.80 905.15,633.52 901.79,633.52
             898.44,633.52 895.72,630.80 895.72,627.44
             895.72,624.09 898.44,621.37 901.79,621.37
             905.15,621.37 907.87,624.09 907.87,627.44
             907.87,627.44 907.87,627.44 907.87,627.44 Z
           M 292.52,537.15
           C 292.52,537.15 229.70,537.16 229.70,537.16
             229.70,537.16 229.70,526.54 229.70,526.54
             229.70,526.54 154.10,526.56 154.10,526.56
             154.10,526.56 154.10,537.18 154.10,537.18
             154.10,537.18 91.28,537.19 91.28,537.19
             91.28,537.19 91.29,589.40 91.29,589.40
             91.29,589.40 101.91,589.40 101.91,589.40
             101.91,589.40 101.92,665.01 101.92,665.01
             101.92,665.01 91.30,665.01 91.30,665.01
             91.30,665.01 91.32,717.22 91.32,717.22
             91.32,717.22 154.14,717.21 154.14,717.21
             154.14,717.21 154.14,727.83 154.14,727.83
             154.14,727.83 229.74,727.81 229.74,727.81
             229.74,727.81 229.74,717.19 229.74,717.19
             229.74,717.19 292.56,717.18 292.56,717.18
             292.56,717.18 292.54,664.97 292.54,664.97
             292.54,664.97 281.92,664.97 281.92,664.97
             281.92,664.97 281.91,589.36 281.91,589.36
             281.91,589.36 292.53,589.36 292.53,589.36
             292.53,589.36 292.52,537.15 292.52,537.15 Z
           M 952.63,646.04
           C 952.63,649.03 950.21,651.44 947.23,651.44
             944.25,651.44 941.83,649.03 941.83,646.04
             941.83,643.06 944.25,640.64 947.23,640.64
             950.21,640.64 952.63,643.06 952.63,646.04
             952.63,646.04 952.63,646.04 952.63,646.04 Z
           M 912.59,627.44
           C 912.59,633.41 907.76,638.25 901.79,638.25
             895.83,638.25 890.99,633.41 890.99,627.44
             890.99,621.48 895.83,616.64 901.79,616.64
             907.76,616.64 912.59,621.48 912.59,627.44
             912.59,627.44 912.59,627.44 912.59,627.44 Z
           M 314.46,537.17
           C 314.46,537.17 314.46,589.38 314.46,589.38
             314.46,589.38 303.84,589.38 303.84,589.38
             303.84,589.38 303.84,664.99 303.84,664.99
             303.84,664.99 314.46,664.99 314.46,664.99
             314.46,664.99 314.46,717.20 314.46,717.20
             314.46,717.20 380.97,717.20 380.97,717.20
             380.97,717.20 380.97,727.82 380.97,727.82
             380.97,727.82 456.66,727.82 456.66,727.82
             456.66,727.82 456.66,717.20 456.66,717.20
             456.66,717.20 532.26,717.20 532.26,717.20
             532.26,717.20 532.26,727.82 532.26,727.82
             532.26,727.82 607.95,727.82 607.95,727.82
             607.95,727.82 607.95,717.20 607.95,717.20
             607.95,717.20 674.46,717.20 674.46,717.20
             674.46,717.20 674.46,664.99 674.46,664.99
             674.46,664.99 685.08,664.99 685.08,664.99
             685.08,664.99 685.08,589.38 685.08,589.38
             685.08,589.38 674.46,589.38 674.46,589.38
             674.46,589.38 674.46,537.17 674.46,537.17
             674.46,537.17 607.95,537.17 607.95,537.17
             607.95,537.17 607.95,526.55 607.95,526.55
             607.95,526.55 532.26,526.55 532.26,526.55
             532.26,526.55 532.26,537.17 532.26,537.17
             532.26,537.17 456.66,537.17 456.66,537.17
             456.66,537.17 456.66,526.55 456.66,526.55
             456.66,526.55 380.97,526.55 380.97,526.55
             380.97,526.55 380.97,537.17 380.97,537.17
             380.97,537.17 314.46,537.17 314.46,537.17 Z
           M 952.60,607.22
           C 952.60,610.21 950.18,612.62 947.20,612.62
             944.22,612.62 941.80,610.21 941.80,607.22
             941.80,604.24 944.22,601.82 947.20,601.82
             950.18,601.82 952.60,604.24 952.60,607.22
             952.60,607.22 952.60,607.22 952.60,607.22 Z
           M 697.83,526.55
           C 697.83,526.55 697.83,589.38 697.83,589.38
             697.83,589.38 708.45,589.38 708.45,589.38
             708.45,589.38 708.45,664.99 708.45,664.99
             708.45,664.99 697.83,664.99 697.83,664.99
             697.83,664.99 697.83,727.82 697.83,727.82
             697.83,727.82 774.96,727.82 774.96,727.82
             774.96,727.82 774.96,717.20 774.96,717.20
             774.96,717.20 850.65,717.20 850.65,717.20
             850.65,717.20 850.65,727.82 850.65,727.82
             850.65,727.82 926.25,727.82 926.25,727.82
             926.25,727.82 926.25,717.20 926.25,717.20
             926.25,717.20 1001.94,717.20 1001.94,717.20
             1001.94,717.20 1001.94,727.82 1001.94,727.82
             1001.94,727.82 1079.07,727.82 1079.07,727.82
             1079.07,727.82 1079.07,664.99 1079.07,664.99
             1079.07,664.99 1068.45,664.99 1068.45,664.99
             1068.45,664.99 1068.45,589.38 1068.45,589.38
             1068.45,589.38 1079.07,589.38 1079.07,589.38
             1079.07,589.38 1079.07,526.55 1079.07,526.55
             1079.07,526.55 1001.94,526.55 1001.94,526.55
             1001.94,526.55 1001.94,537.17 1001.94,537.17
             1001.94,537.17 926.25,537.17 926.25,537.17
             926.25,537.17 926.25,526.55 926.25,526.55
             926.25,526.55 850.65,526.55 850.65,526.55
             850.65,526.55 850.65,537.17 850.65,537.17
             850.65,537.17 774.96,537.17 774.96,537.17
             774.96,537.17 774.96,526.55 774.96,526.55
             774.96,526.55 697.83,526.55 697.83,526.55 Z
           M 933.78,627.21
           C 933.78,630.57 931.06,633.29 927.71,633.29
             924.35,633.29 921.63,630.57 921.63,627.21
             921.63,623.86 924.35,621.14 927.71,621.14
             931.06,621.14 933.78,623.86 933.78,627.21
             933.78,627.21 933.78,627.21 933.78,627.21 Z
           M 835.53,646.05
           C 835.53,649.04 833.11,651.45 830.13,651.45
             827.15,651.45 824.73,649.04 824.73,646.05
             824.73,643.07 827.15,640.65 830.13,640.65
             833.11,640.65 835.53,643.07 835.53,646.05
             835.53,646.05 835.53,646.05 835.53,646.05 Z
           M 835.50,607.23
           C 835.50,610.22 833.08,612.63 830.10,612.63
             827.12,612.63 824.70,610.22 824.70,607.23
             824.70,604.25 827.12,601.83 830.10,601.83
             833.08,601.83 835.50,604.25 835.50,607.23
             835.50,607.23 835.50,607.23 835.50,607.23 Z
           M 199.13,613.68
           C 199.13,613.68 199.13,640.68 199.13,640.68
             199.13,640.68 184.73,640.68 184.73,640.68
             184.73,640.68 184.73,613.68 184.73,613.68
             184.73,613.68 199.13,613.68 199.13,613.68 Z" />
</svg>
